<?xml version="1.0" encoding="UTF-8" standalone="no"?>
<svg
   xmlns:dc="http://purl.org/dc/elements/1.1/"
   xmlns:cc="http://creativecommons.org/ns#"
   xmlns:rdf="http://www.w3.org/1999/02/22-rdf-syntax-ns#"
   xmlns:svg="http://www.w3.org/2000/svg"
   xmlns="http://www.w3.org/2000/svg"
   xmlns:sodipodi="http://sodipodi.sourceforge.net/DTD/sodipodi-0.dtd"
   xmlns:inkscape="http://www.inkscape.org/namespaces/inkscape"
   width="4000"
   height="5000"
   id="svg2"
   version="1.1"
   inkscape:version="0.48.3.1 r9886"
   sodipodi:docname="help.svg">
  <metadata
     id="metadata904">
    <rdf:RDF>
      <cc:Work
         rdf:about="">
        <dc:format>image/svg+xml</dc:format>
        <dc:type
           rdf:resource="http://purl.org/dc/dcmitype/StillImage" />
      </cc:Work>
    </rdf:RDF>
  </metadata>
  <defs
     id="defs902">
    <marker
       inkscape:stockid="Arrow1Mstart"
       orient="auto"
       refY="0.0"
       refX="0.0"
       id="Arrow1Mstart"
       style="overflow:visible">
      <path
         id="path4665"
         d="M 0.0,0.0 L 5.0,-5.0 L -12.5,0.0 L 5.0,5.0 L 0.0,0.0 z "
         style="fill-rule:evenodd;stroke:#000000;stroke-width:1.0pt"
         transform="scale(0.4) translate(10,0)" />
    </marker>
    <marker
       inkscape:stockid="Arrow1Mstart"
       orient="auto"
       refY="0"
       refX="0"
       id="Arrow1Mstart-7"
       style="overflow:visible">
      <path
         inkscape:connector-curvature="0"
         id="path4665-3"
         d="M 0,0 5,-5 -12.5,0 5,5 0,0 z"
         style="fill-rule:evenodd;stroke:#000000;stroke-width:1pt"
         transform="matrix(0.4,0,0,0.4,4,0)" />
    </marker>
  </defs>
  <sodipodi:namedview
     pagecolor="#ffffff"
     bordercolor="#666666"
     borderopacity="1"
     objecttolerance="10"
     gridtolerance="10"
     guidetolerance="10"
     inkscape:pageopacity="0"
     inkscape:pageshadow="2"
     inkscape:window-width="1653"
     inkscape:window-height="1079"
     id="namedview900"
     showgrid="false"
     inkscape:zoom="0.92024578"
     inkscape:cx="549.04753"
     inkscape:cy="4583.0265"
     inkscape:window-x="0"
     inkscape:window-y="0"
     inkscape:window-maximized="0"
     inkscape:current-layer="svg2" />
  <g
     transform="translate(120,20)"
     id="g4">
    <g
       id="g5122"
       transform="translate(106.49329,29.086666)">
      <path
         id="path6"
         style="fill:none;stroke:#cccccc;stroke-width:1.5px"
         d="m 240,536.30332 c 40,0 40,-373.08057 80,-373.08057"
         class="link"
         inkscape:connector-curvature="0" />
      <path
         id="path8"
         style="fill:none;stroke:#cccccc;stroke-width:1.5px"
         d="m 240,536.30332 c 40,0 40,373.08057 80,373.08057"
         class="link"
         inkscape:connector-curvature="0" />
      <path
         id="path10"
         style="fill:none;stroke:#cccccc;stroke-width:1.5px"
         d="m 240,112.70142 c 40,0 40,-19.431278 80,-19.431278"
         class="link"
         inkscape:connector-curvature="0" />
      <path
         id="path12"
         style="fill:none;stroke:#cccccc;stroke-width:1.5px"
         d="m 240,112.70142 c 40,0 40,19.43128 80,19.43128"
         class="link"
         inkscape:connector-curvature="0" />
      <path
         id="path14"
         style="fill:none;stroke:#cccccc;stroke-width:1.5px"
         d="m 160,324.50237 c 40,0 40,-211.80095 80,-211.80095"
         class="link"
         inkscape:connector-curvature="0" />
      <path
         id="path16"
         style="fill:none;stroke:#cccccc;stroke-width:1.5px"
         d="m 160,324.50237 c 40,0 40,211.80095 80,211.80095"
         class="link"
         inkscape:connector-curvature="0" />
      <path
         id="path18"
         style="fill:none;stroke:#cccccc;stroke-width:1.5px"
         d="m 240,38.862559 c 40,0 40,-23.317535 80,-23.317535"
         class="link"
         inkscape:connector-curvature="0" />
      <path
         id="path20"
         style="fill:none;stroke:#cccccc;stroke-width:1.5px"
         d="m 240,38.862559 c 40,0 40,-7.772512 80,-7.772512"
         class="link"
         inkscape:connector-curvature="0" />
      <path
         id="path22"
         style="fill:none;stroke:#cccccc;stroke-width:1.5px"
         d="m 240,38.862559 c 40,0 40,7.772512 80,7.772512"
         class="link"
         inkscape:connector-curvature="0" />
      <path
         id="path24"
         style="fill:none;stroke:#cccccc;stroke-width:1.5px"
         d="m 240,38.862559 c 40,0 40,23.317536 80,23.317536"
         class="link"
         inkscape:connector-curvature="0" />
      <path
         id="path26"
         style="fill:none;stroke:#cccccc;stroke-width:1.5px"
         d="m 160,38.862559 c 40,0 40,0 80,0"
         class="link"
         inkscape:connector-curvature="0" />
      <path
         id="path28"
         style="fill:none;stroke:#cccccc;stroke-width:1.5px"
         d="m 80,181.68246 c 40,0 40,-142.819901 80,-142.819901"
         class="link"
         inkscape:connector-curvature="0" />
      <path
         id="path30"
         style="fill:none;stroke:#cccccc;stroke-width:1.5px"
         d="m 80,181.68246 c 40,0 40,142.81991 80,142.81991"
         class="link"
         inkscape:connector-curvature="0" />
      <path
         id="path32"
         style="fill:none;stroke:#cccccc;stroke-width:1.5px"
         d="m 0,181.68246 c 40,0 40,0 80,0"
         class="link"
         inkscape:connector-curvature="0" />
      <path
         id="path34"
         style="fill:none;stroke:#cccccc;stroke-width:1.5px"
         d="m 320,909.38389 c 40,0 40,-715.07109 80,-715.07109"
         class="link"
         inkscape:connector-curvature="0" />
      <path
         id="path36"
         style="fill:none;stroke:#cccccc;stroke-width:1.5px"
         d="m 320,909.38389 c 40,0 40,-699.52607 80,-699.52607"
         class="link"
         inkscape:connector-curvature="0" />
      <path
         id="path38"
         style="fill:none;stroke:#cccccc;stroke-width:1.5px"
         d="m 320,909.38389 c 40,0 40,-683.98105 80,-683.98105"
         class="link"
         inkscape:connector-curvature="0" />
      <path
         id="path40"
         style="fill:none;stroke:#cccccc;stroke-width:1.5px"
         d="m 320,909.38389 c 40,0 40,-668.43602 80,-668.43602"
         class="link"
         inkscape:connector-curvature="0" />
      <path
         id="path42"
         style="fill:none;stroke:#cccccc;stroke-width:1.5px"
         d="m 320,909.38389 c 40,0 40,-652.891 80,-652.891"
         class="link"
         inkscape:connector-curvature="0" />
      <path
         id="path44"
         style="fill:none;stroke:#cccccc;stroke-width:1.5px"
         d="m 320,909.38389 c 40,0 40,-637.34598 80,-637.34598"
         class="link"
         inkscape:connector-curvature="0" />
      <path
         id="path46"
         style="fill:none;stroke:#cccccc;stroke-width:1.5px"
         d="m 320,909.38389 c 40,0 40,-621.80095 80,-621.80095"
         class="link"
         inkscape:connector-curvature="0" />
      <path
         id="path48"
         style="fill:none;stroke:#cccccc;stroke-width:1.5px"
         d="m 320,909.38389 c 40,0 40,-606.25593 80,-606.25593"
         class="link"
         inkscape:connector-curvature="0" />
      <path
         id="path50"
         style="fill:none;stroke:#cccccc;stroke-width:1.5px"
         d="m 320,909.38389 c 40,0 40,-590.7109 80,-590.7109"
         class="link"
         inkscape:connector-curvature="0" />
      <path
         id="path52"
         style="fill:none;stroke:#cccccc;stroke-width:1.5px"
         d="m 320,909.38389 c 40,0 40,-575.16588 80,-575.16588"
         class="link"
         inkscape:connector-curvature="0" />
      <path
         id="path54"
         style="fill:none;stroke:#cccccc;stroke-width:1.5px"
         d="m 320,909.38389 c 40,0 40,-559.62086 80,-559.62086"
         class="link"
         inkscape:connector-curvature="0" />
      <path
         id="path220"
         style="fill:none;stroke:#cccccc;stroke-width:1.5px"
         d="m 320,163.22275 c 40,0 40,0 80,0"
         class="link"
         inkscape:connector-curvature="0" />
      <path
         id="path222"
         style="fill:none;stroke:#cccccc;stroke-width:1.5px"
         d="m 320,132.1327 c 40,0 40,0 80,0"
         class="link"
         inkscape:connector-curvature="0" />
      <path
         id="path224"
         style="fill:none;stroke:#cccccc;stroke-width:1.5px"
         d="m 320,93.270142 c 40,0 40,-7.772512 80,-7.772512"
         class="link"
         inkscape:connector-curvature="0" />
      <path
         id="path226"
         style="fill:none;stroke:#cccccc;stroke-width:1.5px"
         d="m 320,93.270142 c 40,0 40,7.772508 80,7.772508"
         class="link"
         inkscape:connector-curvature="0" />
      <g
         id="g228"
         transform="translate(0,181.68246)"
         class="node">
        <circle
           d="M 3,0 C 3,1.6568542 1.6568542,3 0,3 -1.6568542,3 -3,1.6568542 -3,0 c 0,-1.6568542 1.3431458,-3 3,-3 1.6568542,0 3,1.3431458 3,3 z"
           id="circle230"
           style="fill:#ffffff;stroke:#808080"
           r="3"
           cx="0"
           cy="0"
           sodipodi:cx="0"
           sodipodi:cy="0"
           sodipodi:rx="3"
           sodipodi:ry="3" />
        <text
           id="text232"
           style="font-size:10px;text-anchor:end;fill-opacity:1;font-family:Arial"
           dy="0"
           x="-10" />
      </g>
      <g
         id="g240"
         transform="translate(320,163.22275)"
         class="node">
        <circle
           d="M 4,0 C 4,2.209139 2.209139,4 0,4 -2.209139,4 -4,2.209139 -4,0 c 0,-2.209139 1.790861,-4 4,-4 2.209139,0 4,1.790861 4,4 z"
           id="circle242"
           style="fill:#ffffff;stroke:#008000"
           r="4"
           cx="0"
           cy="0"
           sodipodi:cx="0"
           sodipodi:cy="0"
           sodipodi:rx="4"
           sodipodi:ry="4" />
        <text
           id="text244"
           style="font-size:10px;text-anchor:start;fill-opacity:1;font-family:Arial"
           dy="0"
           x="10">Griseliniaceae (2)</text>
      </g>
      <g
         id="g252"
         transform="translate(320,132.13271)"
         class="node">
        <circle
           d="M 4,0 C 4,2.209139 2.209139,4 0,4 -2.209139,4 -4,2.209139 -4,0 c 0,-2.209139 1.790861,-4 4,-4 2.209139,0 4,1.790861 4,4 z"
           id="circle254"
           style="fill:#ffffff;stroke:#008000"
           r="4"
           cx="0"
           cy="0"
           sodipodi:cx="0"
           sodipodi:cy="0"
           sodipodi:rx="4"
           sodipodi:ry="4" />
        <text
           id="text256"
           style="font-size:10px;text-anchor:start;fill-opacity:1;font-family:Arial"
           dy="0"
           x="10">Aralidium (2)</text>
      </g>
      <g
         id="g258"
         transform="translate(320,93.270142)"
         class="node">
        <circle
           d="M 4,0 C 4,2.209139 2.209139,4 0,4 -2.209139,4 -4,2.209139 -4,0 c 0,-2.209139 1.790861,-4 4,-4 2.209139,0 4,1.790861 4,4 z"
           id="circle260"
           style="fill:#ffffff;stroke:#008000"
           r="4"
           cx="0"
           cy="0"
           sodipodi:cx="0"
           sodipodi:cy="0"
           sodipodi:rx="4"
           sodipodi:ry="4" />
        <text
           id="text262"
           style="font-size:10px;text-anchor:start;fill-opacity:1;font-family:Arial"
           dy="0"
           x="10">(2)</text>
      </g>
      <g
         id="g264"
         transform="translate(240,112.70142)"
         class="node">
        <circle
           d="M 4,0 C 4,2.209139 2.209139,4 0,4 -2.209139,4 -4,2.209139 -4,0 c 0,-2.209139 1.790861,-4 4,-4 2.209139,0 4,1.790861 4,4 z"
           id="circle266"
           style="fill:#ffffff;stroke:#008000"
           r="4"
           cx="0"
           cy="0"
           sodipodi:cx="0"
           sodipodi:cy="0"
           sodipodi:rx="4"
           sodipodi:ry="4" />
        <text
           id="text268"
           style="font-size:10px;text-anchor:end;fill-opacity:1;font-family:Arial"
           dy="0"
           x="-10">Torricelliaceae (2)</text>
      </g>
      <g
         id="g270"
         transform="translate(160,324.50238)"
         class="node">
        <circle
           d="M 4,0 C 4,2.209139 2.209139,4 0,4 -2.209139,4 -4,2.209139 -4,0 c 0,-2.209139 1.790861,-4 4,-4 2.209139,0 4,1.790861 4,4 z"
           id="circle272"
           style="fill:#ffffff;stroke:#008000"
           r="4"
           cx="0"
           cy="0"
           sodipodi:cx="0"
           sodipodi:cy="0"
           sodipodi:rx="4"
           sodipodi:ry="4" />
        <text
           id="text274"
           style="font-size:10px;text-anchor:end;fill-opacity:1;font-family:Arial"
           dy="0"
           x="-10">(2)</text>
      </g>
      <g
         id="g276"
         transform="translate(320,62.180096)"
         class="node">
        <circle
           d="M 3,0 C 3,1.6568542 1.6568542,3 0,3 -1.6568542,3 -3,1.6568542 -3,0 c 0,-1.6568542 1.3431458,-3 3,-3 1.6568542,0 3,1.3431458 3,3 z"
           id="circle278"
           style="fill:#ffffff;stroke:#808080"
           r="3"
           cx="0"
           cy="0"
           sodipodi:cx="0"
           sodipodi:cy="0"
           sodipodi:rx="3"
           sodipodi:ry="3" />
        <text
           id="text280"
           style="font-size:10px;text-anchor:start;fill-opacity:1;font-family:Arial"
           dy="0"
           x="10">Pennantia_corymbosa</text>
      </g>
      <g
         id="g282"
         transform="translate(320,46.635071)"
         class="node">
        <circle
           d="M 3,0 C 3,1.6568542 1.6568542,3 0,3 -1.6568542,3 -3,1.6568542 -3,0 c 0,-1.6568542 1.3431458,-3 3,-3 1.6568542,0 3,1.3431458 3,3 z"
           id="circle284"
           style="fill:#ffffff;stroke:#808080"
           r="3"
           cx="0"
           cy="0"
           sodipodi:cx="0"
           sodipodi:cy="0"
           sodipodi:rx="3"
           sodipodi:ry="3" />
        <text
           id="text286"
           style="font-size:10px;text-anchor:start;fill-opacity:1;font-family:Arial"
           dy="0"
           x="10">Pennantia_cunninghamii</text>
      </g>
      <g
         id="g288"
         transform="translate(320,31.090048)"
         class="node">
        <circle
           d="M 3,0 C 3,1.6568542 1.6568542,3 0,3 -1.6568542,3 -3,1.6568542 -3,0 c 0,-1.6568542 1.3431458,-3 3,-3 1.6568542,0 3,1.3431458 3,3 z"
           id="circle290"
           style="fill:#ffffff;stroke:#808080"
           r="3"
           cx="0"
           cy="0"
           sodipodi:cx="0"
           sodipodi:cy="0"
           sodipodi:rx="3"
           sodipodi:ry="3" />
        <text
           id="text292"
           style="font-size:10px;text-anchor:start;fill-opacity:1;font-family:Arial"
           dy="0"
           x="10">Pennantia_endlicheri</text>
      </g>
      <g
         id="g294"
         transform="translate(320,15.545024)"
         class="node">
        <circle
           d="M 3,0 C 3,1.6568542 1.6568542,3 0,3 -1.6568542,3 -3,1.6568542 -3,0 c 0,-1.6568542 1.3431458,-3 3,-3 1.6568542,0 3,1.3431458 3,3 z"
           id="circle296"
           style="fill:#ffffff;stroke:#808080"
           r="3"
           cx="0"
           cy="0"
           sodipodi:cx="0"
           sodipodi:cy="0"
           sodipodi:rx="3"
           sodipodi:ry="3" />
        <text
           id="text298"
           style="font-size:10px;text-anchor:start;fill-opacity:1;font-family:Arial"
           dy="0"
           x="10">Pennantia_baylisiana</text>
      </g>
      <g
         id="g300"
         transform="translate(240,38.86256)"
         class="node">
        <circle
           d="M 3,0 C 3,1.6568542 1.6568542,3 0,3 -1.6568542,3 -3,1.6568542 -3,0 c 0,-1.6568542 1.3431458,-3 3,-3 1.6568542,0 3,1.3431458 3,3 z"
           id="circle302"
           style="fill:#ffffff;stroke:#808080"
           r="3"
           cx="0"
           cy="0"
           sodipodi:cx="0"
           sodipodi:cy="0"
           sodipodi:rx="3"
           sodipodi:ry="3" />
        <text
           id="text304"
           style="font-size:10px;text-anchor:end;fill-opacity:1;font-family:Arial"
           dy="0"
           x="-10">Pennantia</text>
      </g>
      <g
         id="g306"
         transform="translate(160,38.86256)"
         class="node">
        <circle
           d="M 4,0 C 4,2.209139 2.209139,4 0,4 -2.209139,4 -4,2.209139 -4,0 c 0,-2.209139 1.790861,-4 4,-4 2.209139,0 4,1.790861 4,4 z"
           id="circle308"
           style="fill:#ffffff;stroke:#008000"
           r="4"
           cx="0"
           cy="0"
           sodipodi:cx="0"
           sodipodi:cy="0"
           sodipodi:rx="4"
           sodipodi:ry="4" />
        <text
           id="text310"
           style="font-size:10px;text-anchor:end;fill-opacity:1;font-family:Arial"
           dy="0"
           x="-10">Pennantiaceae (2)</text>
      </g>
      <g
         id="g312"
         transform="translate(80,181.68246)"
         class="node">
        <circle
           d="M 4,0 C 4,2.209139 2.209139,4 0,4 -2.209139,4 -4,2.209139 -4,0 c 0,-2.209139 1.790861,-4 4,-4 2.209139,0 4,1.790861 4,4 z"
           id="circle314"
           style="fill:#ffffff;stroke:#008000"
           r="4"
           cx="0"
           cy="0"
           sodipodi:cx="0"
           sodipodi:cy="0"
           sodipodi:rx="4"
           sodipodi:ry="4" />
        <text
           id="text316"
           style="font-size:10px;text-anchor:end;fill-opacity:1;font-family:Arial"
           dy="0"
           x="-10">Apiales (2)</text>
      </g>
      <g
         id="g810"
         transform="translate(400,349.76303)"
         class="node">
        <circle
           d="M 3,0 C 3,1.6568542 1.6568542,3 0,3 -1.6568542,3 -3,1.6568542 -3,0 c 0,-1.6568542 1.3431458,-3 3,-3 1.6568542,0 3,1.3431458 3,3 z"
           id="circle812"
           style="fill:#90ee90;stroke:#808080"
           r="3"
           cx="0"
           cy="0"
           sodipodi:cx="0"
           sodipodi:cy="0"
           sodipodi:rx="3"
           sodipodi:ry="3" />
        <text
           id="text814"
           style="font-size:10px;text-anchor:start;fill-opacity:1;font-family:Arial"
           dy="0"
           x="10">Tobion</text>
      </g>
      <g
         id="g816"
         transform="translate(400,334.21802)"
         class="node">
        <circle
           d="M 3,0 C 3,1.6568542 1.6568542,3 0,3 -1.6568542,3 -3,1.6568542 -3,0 c 0,-1.6568542 1.3431458,-3 3,-3 1.6568542,0 3,1.3431458 3,3 z"
           id="circle818"
           style="fill:#90ee90;stroke:#808080"
           r="3"
           cx="0"
           cy="0"
           sodipodi:cx="0"
           sodipodi:cy="0"
           sodipodi:rx="3"
           sodipodi:ry="3" />
        <text
           id="text820"
           style="font-size:10px;text-anchor:start;fill-opacity:1;font-family:Arial"
           dy="0"
           x="10">Callisace</text>
      </g>
      <g
         id="g822"
         transform="translate(400,318.67297)"
         class="node">
        <circle
           d="M 3,0 C 3,1.6568542 1.6568542,3 0,3 -1.6568542,3 -3,1.6568542 -3,0 c 0,-1.6568542 1.3431458,-3 3,-3 1.6568542,0 3,1.3431458 3,3 z"
           id="circle824"
           style="fill:#90ee90;stroke:#808080"
           r="3"
           cx="0"
           cy="0"
           sodipodi:cx="0"
           sodipodi:cy="0"
           sodipodi:rx="3"
           sodipodi:ry="3" />
        <text
           id="text826"
           style="font-size:10px;text-anchor:start;fill-opacity:1;font-family:Arial"
           dy="0"
           x="10">Tiricta</text>
      </g>
      <g
         id="g828"
         transform="translate(400,303.12796)"
         class="node">
        <circle
           d="M 3,0 C 3,1.6568542 1.6568542,3 0,3 -1.6568542,3 -3,1.6568542 -3,0 c 0,-1.6568542 1.3431458,-3 3,-3 1.6568542,0 3,1.3431458 3,3 z"
           id="circle830"
           style="fill:#90ee90;stroke:#808080"
           r="3"
           cx="0"
           cy="0"
           sodipodi:cx="0"
           sodipodi:cy="0"
           sodipodi:rx="3"
           sodipodi:ry="3" />
        <text
           id="text832"
           style="font-size:10px;text-anchor:start;fill-opacity:1;font-family:Arial"
           dy="0"
           x="10">Petrocarvi</text>
      </g>
      <g
         id="g834"
         transform="translate(400,287.58295)"
         class="node">
        <circle
           d="M 3,0 C 3,1.6568542 1.6568542,3 0,3 -1.6568542,3 -3,1.6568542 -3,0 c 0,-1.6568542 1.3431458,-3 3,-3 1.6568542,0 3,1.3431458 3,3 z"
           id="circle836"
           style="fill:#90ee90;stroke:#808080"
           r="3"
           cx="0"
           cy="0"
           sodipodi:cx="0"
           sodipodi:cy="0"
           sodipodi:rx="3"
           sodipodi:ry="3" />
        <text
           id="text838"
           style="font-size:10px;text-anchor:start;fill-opacity:1;font-family:Arial"
           dy="0"
           x="10">Heteroptilis</text>
      </g>
      <g
         id="g840"
         transform="translate(400,272.0379)"
         class="node">
        <circle
           d="M 3,0 C 3,1.6568542 1.6568542,3 0,3 -1.6568542,3 -3,1.6568542 -3,0 c 0,-1.6568542 1.3431458,-3 3,-3 1.6568542,0 3,1.3431458 3,3 z"
           id="circle842"
           style="fill:#90ee90;stroke:#808080"
           r="3"
           cx="0"
           cy="0"
           sodipodi:cx="0"
           sodipodi:cy="0"
           sodipodi:rx="3"
           sodipodi:ry="3" />
        <text
           id="text844"
           style="font-size:10px;text-anchor:start;fill-opacity:1;font-family:Arial"
           dy="0"
           x="10">Reilia</text>
      </g>
      <g
         id="g846"
         transform="translate(400,256.49289)"
         class="node">
        <circle
           d="M 3,0 C 3,1.6568542 1.6568542,3 0,3 -1.6568542,3 -3,1.6568542 -3,0 c 0,-1.6568542 1.3431458,-3 3,-3 1.6568542,0 3,1.3431458 3,3 z"
           id="circle848"
           style="fill:#90ee90;stroke:#808080"
           r="3"
           cx="0"
           cy="0"
           sodipodi:cx="0"
           sodipodi:cy="0"
           sodipodi:rx="3"
           sodipodi:ry="3" />
        <text
           id="text850"
           style="font-size:10px;text-anchor:start;fill-opacity:1;font-family:Arial"
           dy="0"
           x="10">Pectophytum</text>
      </g>
      <g
         id="g852"
         transform="translate(400,240.94786)"
         class="node">
        <circle
           d="M 3,0 C 3,1.6568542 1.6568542,3 0,3 -1.6568542,3 -3,1.6568542 -3,0 c 0,-1.6568542 1.3431458,-3 3,-3 1.6568542,0 3,1.3431458 3,3 z"
           id="circle854"
           style="fill:#90ee90;stroke:#808080"
           r="3"
           cx="0"
           cy="0"
           sodipodi:cx="0"
           sodipodi:cy="0"
           sodipodi:rx="3"
           sodipodi:ry="3" />
        <text
           id="text856"
           style="font-size:10px;text-anchor:start;fill-opacity:1;font-family:Arial"
           dy="0"
           x="10">Aegomarathrum</text>
      </g>
      <g
         id="g858"
         transform="translate(400,225.40285)"
         class="node">
        <circle
           d="M 3,0 C 3,1.6568542 1.6568542,3 0,3 -1.6568542,3 -3,1.6568542 -3,0 c 0,-1.6568542 1.3431458,-3 3,-3 1.6568542,0 3,1.3431458 3,3 z"
           id="circle860"
           style="fill:#90ee90;stroke:#808080"
           r="3"
           cx="0"
           cy="0"
           sodipodi:cx="0"
           sodipodi:cy="0"
           sodipodi:rx="3"
           sodipodi:ry="3" />
        <text
           id="text862"
           style="font-size:10px;text-anchor:start;fill-opacity:1;font-family:Arial"
           dy="0"
           x="10">Oenosciadium</text>
      </g>
      <g
         id="g864"
         transform="translate(400,209.85782)"
         class="node">
        <circle
           d="M 3,0 C 3,1.6568542 1.6568542,3 0,3 -1.6568542,3 -3,1.6568542 -3,0 c 0,-1.6568542 1.3431458,-3 3,-3 1.6568542,0 3,1.3431458 3,3 z"
           id="circle866"
           style="fill:#90ee90;stroke:#808080"
           r="3"
           cx="0"
           cy="0"
           sodipodi:cx="0"
           sodipodi:cy="0"
           sodipodi:rx="3"
           sodipodi:ry="3" />
        <text
           id="text868"
           style="font-size:10px;text-anchor:start;fill-opacity:1;font-family:Arial"
           dy="0"
           x="10">Wendia</text>
      </g>
      <g
         id="g870"
         transform="translate(400,194.31279)"
         class="node">
        <circle
           d="M 3,0 C 3,1.6568542 1.6568542,3 0,3 -1.6568542,3 -3,1.6568542 -3,0 c 0,-1.6568542 1.3431458,-3 3,-3 1.6568542,0 3,1.3431458 3,3 z"
           id="circle872"
           style="fill:#90ee90;stroke:#808080"
           r="3"
           cx="0"
           cy="0"
           sodipodi:cx="0"
           sodipodi:cy="0"
           sodipodi:rx="3"
           sodipodi:ry="3" />
        <text
           id="text874"
           style="font-size:10px;text-anchor:start;fill-opacity:1;font-family:Arial"
           dy="0"
           x="10">Apiaceae_incertae_sedis</text>
      </g>
      <g
         id="g876"
         transform="translate(400,163.22275)"
         class="node">
        <circle
           d="M 3,0 C 3,1.6568542 1.6568542,3 0,3 -1.6568542,3 -3,1.6568542 -3,0 c 0,-1.6568542 1.3431458,-3 3,-3 1.6568542,0 3,1.3431458 3,3 z"
           id="circle878"
           style="fill:#90ee90;stroke:#808080"
           r="3"
           cx="0"
           cy="0"
           sodipodi:cx="0"
           sodipodi:cy="0"
           sodipodi:rx="3"
           sodipodi:ry="3" />
        <text
           id="text880"
           style="font-size:10px;text-anchor:start;fill-opacity:1;font-family:Arial"
           dy="0"
           x="10">Griselinia</text>
      </g>
      <g
         id="g882"
         transform="translate(400,132.13271)"
         class="node">
        <circle
           d="M 3,0 C 3,1.6568542 1.6568542,3 0,3 -1.6568542,3 -3,1.6568542 -3,0 c 0,-1.6568542 1.3431458,-3 3,-3 1.6568542,0 3,1.3431458 3,3 z"
           id="circle884"
           style="fill:#ffffff;stroke:#808080"
           r="3"
           cx="0"
           cy="0"
           sodipodi:cx="0"
           sodipodi:cy="0"
           sodipodi:rx="3"
           sodipodi:ry="3" />
        <text
           id="text886"
           style="font-size:10px;text-anchor:start;fill-opacity:1;font-family:Arial"
           dy="0"
           x="10">Aralidium_pinnatifidum</text>
      </g>
      <g
         id="g888"
         transform="translate(400,101.04266)"
         class="node">
        <circle
           d="M 4,0 C 4,2.209139 2.209139,4 0,4 -2.209139,4 -4,2.209139 -4,0 c 0,-2.209139 1.790861,-4 4,-4 2.209139,0 4,1.790861 4,4 z"
           id="circle890"
           style="fill:#90ee90;stroke:#008000"
           r="4"
           cx="0"
           cy="0"
           sodipodi:cx="0"
           sodipodi:cy="0"
           sodipodi:rx="4"
           sodipodi:ry="4" />
        <text
           id="text892"
           style="font-size:10px;text-anchor:start;fill-opacity:1;font-family:Arial"
           dy="0"
           x="10">Melanophylla (2)</text>
      </g>
      <g
         id="g894"
         transform="translate(400,85.497627)"
         class="node">
        <circle
           d="M 4,0 C 4,2.209139 2.209139,4 0,4 -2.209139,4 -4,2.209139 -4,0 c 0,-2.209139 1.790861,-4 4,-4 2.209139,0 4,1.790861 4,4 z"
           id="circle896"
           style="fill:#90ee90;stroke:#008000"
           r="4"
           cx="0"
           cy="0"
           sodipodi:cx="0"
           sodipodi:cy="0"
           sodipodi:rx="4"
           sodipodi:ry="4" />
        <text
           id="text898"
           style="font-size:10px;text-anchor:start;fill-opacity:1;font-family:Arial"
           dy="0"
           x="10">Toricelliaceae (2)</text>
      </g>
    </g>
    <path
       style="fill:none;stroke:#000000;stroke-width:1px;stroke-linecap:butt;stroke-linejoin:miter;stroke-opacity:1;marker-start:url(#Arrow1Mstart)"
       d="M 105.50698,217.91729 C 100.94667,254.72416 59.110019,300.5514 59.110019,300.5514"
       id="path3881"
       inkscape:connector-curvature="0"
       sodipodi:nodetypes="cc" />
    <text
       xml:space="preserve"
       style="font-size:40px;font-style:normal;font-weight:normal;line-height:125%;letter-spacing:0px;word-spacing:0px;fill:#000000;fill-opacity:1;stroke:none;font-family:Sans"
       x="-9.468915"
       y="316.20755"
       id="text3883-3"
       sodipodi:linespacing="125%"><tspan
         sodipodi:role="line"
         x="-9.468915"
         y="316.20755"
         style="font-size:14px;font-weight:bold;-inkscape-font-specification:Droid Sans Bold;font-family:Droid Sans;font-style:normal;font-stretch:normal;font-variant:normal"
         id="tspan5105-7">Click to go back</tspan></text>
    <text
       xml:space="preserve"
       style="font-size:40px;font-style:normal;font-weight:normal;line-height:125%;letter-spacing:0px;word-spacing:0px;fill:#000000;fill-opacity:1;stroke:none;font-family:Sans"
       x="-49.007027"
       y="12.364371"
       id="text3883-3-2"
       sodipodi:linespacing="125%"><tspan
         sodipodi:role="line"
         x="-49.007027"
         y="12.364371"
         style="font-size:14px;font-weight:bold;-inkscape-font-specification:Droid Sans Bold;font-family:Droid Sans;font-style:normal;font-stretch:normal;font-variant:normal"
         id="tspan5105-7-7">Click on any node or name to refocus</tspan></text>
  </g>
  <circle
     transform="matrix(5.6011667,0,0,5.6011667,34.773147,160.45186)"
     d="M 3,0 C 3,1.6568542 1.6568542,3 0,3 -1.6568542,3 -3,1.6568542 -3,0 c 0,-1.6568542 1.3431458,-3 3,-3 1.6568542,0 3,1.3431458 3,3 z"
     id="circle872-9"
     style="fill:#90ee90;stroke:#808080;stroke-width:0.17853424"
     r="3"
     cx="0"
     cy="0"
     sodipodi:cx="0"
     sodipodi:cy="0"
     sodipodi:rx="3"
     sodipodi:ry="3" />
  <circle
     transform="matrix(3.9883321,0,0,3.9883321,34.773319,78.235388)"
     d="M 4,0 C 4,2.209139 2.209139,4 0,4 -2.209139,4 -4,2.209139 -4,0 c 0,-2.209139 1.790861,-4 4,-4 2.209139,0 4,1.790861 4,4 z"
     id="circle314-7"
     style="fill:#ffffff;stroke:#008000;stroke-width:0.67697471;stroke-miterlimit:4;stroke-dasharray:none"
     r="4"
     cx="0"
     cy="0"
     sodipodi:cx="0"
     sodipodi:cy="0"
     sodipodi:rx="4"
     sodipodi:ry="4" />
  <text
     xml:space="preserve"
     style="font-size:40px;font-style:normal;font-weight:normal;line-height:125%;letter-spacing:0px;word-spacing:0px;fill:#000000;fill-opacity:1;stroke:none;font-family:Sans"
     x="71.411102"
     y="68.887688"
     id="text3883"
     sodipodi:linespacing="125%"><tspan
       sodipodi:role="line"
       id="tspan3885"
       x="71.411102"
       y="68.887688"
       style="font-size:14px;font-style:normal;font-variant:normal;font-weight:bold;font-stretch:normal;font-family:Droid Sans;-inkscape-font-specification:Droid Sans Bold">Sources other than </tspan><tspan
       sodipodi:role="line"
       x="71.411102"
       y="86.387688"
       style="font-size:14px;font-style:normal;font-variant:normal;font-weight:bold;font-stretch:normal;font-family:Droid Sans;-inkscape-font-specification:Droid Sans Bold"
       id="tspan5101">taxonomy support this.</tspan><tspan
       sodipodi:role="line"
       x="71.411102"
       y="103.88769"
       style="font-size:14px;font-style:normal;font-variant:normal;font-weight:bold;font-stretch:normal;font-family:Droid Sans;-inkscape-font-specification:Droid Sans Bold"
       id="tspan5107">How many sources are </tspan><tspan
       sodipodi:role="line"
       x="71.411102"
       y="121.38769"
       style="font-size:14px;font-style:normal;font-variant:normal;font-weight:bold;font-stretch:normal;font-family:Droid Sans;-inkscape-font-specification:Droid Sans Bold"
       id="tspan5109">in parentheses.</tspan><tspan
       sodipodi:role="line"
       x="71.411102"
       y="138.8877"
       style="font-size:14px;font-style:normal;font-variant:normal;font-weight:bold;font-stretch:normal;font-family:Droid Sans;-inkscape-font-specification:Droid Sans Bold"
       id="tspan5105" /></text>
  <text
     xml:space="preserve"
     style="font-size:40px;font-style:normal;font-weight:normal;line-height:125%;letter-spacing:0px;word-spacing:0px;fill:#000000;fill-opacity:1;stroke:none;font-family:Sans"
     x="67.064438"
     y="152.56099"
     id="text3883-36"
     sodipodi:linespacing="125%"><tspan
       sodipodi:role="line"
       x="67.064438"
       y="152.56099"
       style="font-size:14px;-inkscape-font-specification:Droid Sans Bold;font-family:Droid Sans;font-weight:bold;font-style:normal;font-stretch:normal;font-variant:normal"
       id="tspan5105-9">Not all children have been</tspan><tspan
       sodipodi:role="line"
       x="67.064438"
       y="170.06099"
       style="font-size:14px;-inkscape-font-specification:Droid Sans Bold;font-family:Droid Sans;font-weight:bold;font-style:normal;font-stretch:normal;font-variant:normal"
       id="tspan5460">shown. Click a nested node</tspan><tspan
       sodipodi:role="line"
       x="67.064438"
       y="187.56099"
       style="font-size:14px;-inkscape-font-specification:Droid Sans Bold;font-family:Droid Sans;font-weight:bold;font-style:normal;font-stretch:normal;font-variant:normal"
       id="tspan5462">or this node to see more.</tspan></text>
</svg>
